<svg xmlns="http://www.w3.org/2000/svg" xmlns:xlink="http://www.w3.org/1999/xlink" aria-hidden="true" role="img" class="iconify iconify--logos" width="31.88" height="32" preserveAspectRatio="xMidYMid meet" viewBox="0 0 256 257"><defs><linearGradient id="IconifyId1813788fe1fbc4686666" x1="-.828%" x2="57.636%" y1="7.652%" y2="78.411%"><stop offset="0%" stop-color="#61DAFB"></stop><stop offset="100%" stop-color="#2196F3"></stop></linearGradient></defs><path fill="url(#IconifyId1813788fe1fbc4686666)" d="M210.483 73.824a11.58 11.58 0 0 0-14.447-7.292c-2.677.94-52.275 18.556-52.275 76.027c0 57.948 49.935 74.583 52.612 75.523a11.58 11.58 0 0 0 14.447-7.292c2.677-.94 52.275-18.556 52.275-76.027c0-57.949-49.935-74.583-52.612-75.523Z"></path><path fill="url(#IconifyId1813788fe1fbc4686666)" d="M44.589 206.483a11.646 11.646 0 0 0 7.413 14.3c2.676.94 52.275 18.555 52.275 76.026c0 57.948 49.935 74.583 52.612 75.524a11.646 11.646 0 0 0 14.447-7.292c2.677-.94 52.275-18.556 52.275-76.027c0-57.949-49.935-74.583-52.612-75.523a11.646 11.646 0 0 0-14.447 7.292c-2.676.94-52.275 18.556-52.275 76.027c0 57.948-49.935 74.583-52.612 75.523a11.646 11.646 0 0 0-14.447-7.292c-2.677-.94-52.275-18.556-52.275-76.027c0-57.949 49.935-74.583 52.613-75.523Z" transform="matrix(1 0 0 -1 0 539.083)"></path></svg>